:SAMPLES-PER-SECOND 30
:FULLY-SPECIFIED
:DEGREES
1
root  -60.2533 19.5351 0.269785 -127.036 77.5235 -175.274
RightUpLeg  -54.8568 2.86337 15.5008
RightLeg  112.413 9.36962 4.69942
RightFoot  -24.4666 -0.884132 -8.84718
RightToes  5.82063e-011 -1.59028e-015 9.93923e-017
Spine  50.1351 -6.70216 19.6634
Spine1  -20.2049 2.31154 -13.082
HEad  -57.0719 -9.72632 11.8726
LeftShoulder1  9.93923e-017 0 1.22299e-017
LeftArm  8.8634 -30.9462 -104.074
LeftForeArm  30.8796 -1.67148 -2.71807
LeftHand  -3.85269 -0.672274 47.7802
RightShoulder  1.98785e-016 -4.96962e-017 1.55301e-017
RightArm  -4.26953 52.2343 63.1038
RightForeArm  5.53522 1.39576 -8.16875
RightHand  3.31522 -15.0941 -23.8454
LeftUpLeg  -20.798 -11.7558 14.8996
LeftLeg  70.4377 -15.0689 -8.69653
LeftFoot  11.4366 1.26673 -5.59466
LeftToes  2.21007e-009 5.55039e-011 -9.07147e-011
2
root  -59.7223 19.6997 0.529495 -132.626 78.1008 179.153
RightUpLeg  -53.1418 2.75406 15.1025
RightLeg  110.445 9.92742 3.61403
RightFoot  -24.7285 -0.909933 -8.8988
RightToes  5.82063e-011 -1.59028e-015 9.93923e-017
Spine  51.0275 -6.19421 17.9102
Spine1  -21.2333 2.0335 -12.0896
HEad  -56.5705 -9.3617 11.5897
LeftShoulder1  9.93923e-017 0 1.22299e-017
LeftArm  7.5494 -30.1755 -103.234
LeftForeArm  31.8158 -1.66263 -3.13669
LeftHand  -3.90534 -0.698528 48.1634
RightShoulder  1.98785e-016 -4.96962e-017 1.55301e-017
RightArm  -2.394 52.4382 65.6321
RightForeArm  4.64574 -0.399843 -7.50443
RightHand  3.5352 -15.5385 -24.7162
LeftUpLeg  -23.6308 -10.8391 14.4168
LeftLeg  74.73 -14.7464 -9.5728
LeftFoot  8.47087 1.07127 -5.40379
LeftToes  2.21007e-009 5.55039e-011 -9.07147e-011
3
root  -58.7444 19.9408 1.01695 -143.505 79.0481 168.324
RightUpLeg  -50.1006 2.80496 14.2744
RightLeg  106.997 10.6986 1.80033
RightFoot  -24.8946 -0.919713 -8.86722
RightToes  5.82063e-011 -1.59028e-015 9.93923e-017
Spine  51.155 -5.23468 14.6415
Spine1  -20.0783 1.60223 -10.6222
HEad  -57.2142 -8.18108 11.7283
LeftShoulder1  9.93923e-017 0 1.22299e-017
LeftArm  6.34804 -29.716 -101.75
LeftForeArm  32.984 -1.80155 -3.33773
LeftHand  -3.99895 -0.749271 48.808
RightShoulder  1.98785e-016 -4.96962e-017 1.55301e-017
RightArm  -0.126775 52.7822 68.6423
RightForeArm  2.65867 -2.15525 -6.81295
RightHand  3.97109 -16.2746 -26.7254
LeftUpLeg  -29.3303 -9.35519 13.4895
LeftLeg  83.0579 -13.7681 -10.4704
LeftFoot  2.00066 0.71894 -5.26612
LeftToes  2.21007e-009 5.55039e-011 -9.07147e-011
4
root  -57.7289 20.1085 1.52574 -155.173 80.0089 156.87
RightUpLeg  -46.891 3.32739 13.2821
RightLeg  103.666 11.1047 0.502152
RightFoot  -24.6876 -0.899366 -8.82644
RightToes  5.82063e-011 -1.59028e-015 9.93923e-017
Spine  50.186 -5.27478 11.6274
Spine1  -16.6098 0.45114 -11.7315
HEad  -58.6423 -5.77366 13.591
LeftShoulder1  9.93923e-017 0 1.22299e-017
LeftArm  7.06025 -29.7372 -98.8584
LeftForeArm  32.9622 -1.79946 -3.3515
LeftHand  -4.07898 -0.786712 49.3928
RightShoulder  1.98785e-016 -4.96962e-017 1.55301e-017
RightArm  0.483911 52.5525 71.4628
RightForeArm  0.778378 -2.42321 -6.90999
RightHand  4.39841 -16.8176 -29.0354
LeftUpLeg  -35.9842 -7.87299 12.5703
LeftLeg  92.3474 -12.4283 -10.8584
LeftFoot  -5.86095 0.328783 -5.19033
LeftToes  2.21007e-009 5.55039e-011 -9.07147e-011
